# xmcd
#
# Track frame offsets: 
#        150
#        38918
#        64275
#        99368
#        116613
#
# Disc length: 1853 seconds
#
# Revision: 0
# Processed by: cddbd v1.5.1PL2 Copyright (c) Steve Scherf et al.
# Submitted via: ExactAudioCopy v0.95a5
#
DISCID=3d073b05
DTITLE=Special Others - IDOL
DYEAR=2006
DGENRE=Fusion
TTITLE0=IDOL
TTITLE1=Aului
TTITLE2=Saudade
TTITLE3=Manbo No.5
TTITLE4=Quinto
EXTD=
EXTT0=
EXTT1=
EXTT2=
EXTT3=
EXTT4=
PLAYORDER=
